<mxfile host="app.diagrams.net" modified="2023-04-19T09:08:18.702Z" agent="Mozilla/5.0 (Windows NT 10.0; Win64; x64) AppleWebKit/537.36 (KHTML, like Gecko) Chrome/112.0.0.0 Safari/537.36 Edg/112.0.1722.48" etag="7PNqM7Y7KQqqaMdKbQB5" version="21.1.7" type="github">
  <diagram name="第 1 页" id="qJ-X1qhtcwTxbgNXG1Gi">
    <mxGraphModel dx="794" dy="781" grid="1" gridSize="10" guides="1" tooltips="1" connect="1" arrows="1" fold="1" page="1" pageScale="1" pageWidth="1900" pageHeight="1000" math="1" shadow="0">
      <root>
        <mxCell id="0" />
        <mxCell id="1" parent="0" />
        <mxCell id="NKLDn5L9JN7en2WeP7ce-2" value="&amp;lt;&amp;lt;interface&amp;gt;&amp;gt;&lt;br&gt;&lt;b&gt;Collection&lt;br&gt;&lt;/b&gt;" style="html=1;whiteSpace=wrap;" parent="1" vertex="1">
          <mxGeometry x="485" y="370" width="110" height="50" as="geometry" />
        </mxCell>
        <mxCell id="NKLDn5L9JN7en2WeP7ce-3" value="" style="endArrow=block;dashed=1;endFill=0;endSize=12;html=1;rounded=0;exitX=0.5;exitY=0;exitDx=0;exitDy=0;entryX=0.505;entryY=1.02;entryDx=0;entryDy=0;entryPerimeter=0;" parent="1" source="NKLDn5L9JN7en2WeP7ce-2" target="E5FZJGZwCVPtuIH_qCDA-19" edge="1">
          <mxGeometry width="160" relative="1" as="geometry">
            <mxPoint x="575" y="380" as="sourcePoint" />
            <mxPoint x="540" y="330" as="targetPoint" />
          </mxGeometry>
        </mxCell>
        <mxCell id="NKLDn5L9JN7en2WeP7ce-4" value="&amp;lt;&amp;lt;interfac&amp;gt;&amp;gt;&lt;br&gt;&lt;b&gt;List&lt;/b&gt;" style="html=1;whiteSpace=wrap;" parent="1" vertex="1">
          <mxGeometry x="315" y="520" width="110" height="50" as="geometry" />
        </mxCell>
        <mxCell id="NKLDn5L9JN7en2WeP7ce-5" value="" style="endArrow=block;dashed=1;endFill=0;endSize=12;html=1;rounded=0;entryX=0.25;entryY=1;entryDx=0;entryDy=0;exitX=0.5;exitY=0;exitDx=0;exitDy=0;" parent="1" source="NKLDn5L9JN7en2WeP7ce-4" target="NKLDn5L9JN7en2WeP7ce-2" edge="1">
          <mxGeometry width="160" relative="1" as="geometry">
            <mxPoint x="575" y="590" as="sourcePoint" />
            <mxPoint x="735" y="590" as="targetPoint" />
            <Array as="points" />
          </mxGeometry>
        </mxCell>
        <mxCell id="NKLDn5L9JN7en2WeP7ce-6" value="&amp;lt;&amp;lt;interface&amp;gt;&amp;gt;&lt;br&gt;&lt;b&gt;Set&lt;br&gt;&lt;/b&gt;" style="html=1;whiteSpace=wrap;" parent="1" vertex="1">
          <mxGeometry x="622.5" y="520" width="110" height="50" as="geometry" />
        </mxCell>
        <mxCell id="NKLDn5L9JN7en2WeP7ce-7" value="" style="endArrow=block;dashed=1;endFill=0;endSize=12;html=1;entryX=0.75;entryY=1;entryDx=0;entryDy=0;exitX=0.5;exitY=0;exitDx=0;exitDy=0;rounded=0;" parent="1" source="NKLDn5L9JN7en2WeP7ce-6" target="NKLDn5L9JN7en2WeP7ce-2" edge="1">
          <mxGeometry width="160" relative="1" as="geometry">
            <mxPoint x="685" y="490" as="sourcePoint" />
            <mxPoint x="715" y="430" as="targetPoint" />
            <Array as="points" />
          </mxGeometry>
        </mxCell>
        <mxCell id="NKLDn5L9JN7en2WeP7ce-8" value="ArrayList" style="swimlane;fontStyle=1;align=center;verticalAlign=top;childLayout=stackLayout;horizontal=1;startSize=26;horizontalStack=0;resizeParent=1;resizeParentMax=0;resizeLast=0;collapsible=1;marginBottom=0;whiteSpace=wrap;html=1;" parent="1" vertex="1" collapsed="1">
          <mxGeometry x="195" y="630" width="90" height="30" as="geometry">
            <mxRectangle x="440" y="750" width="160" height="86" as="alternateBounds" />
          </mxGeometry>
        </mxCell>
        <mxCell id="NKLDn5L9JN7en2WeP7ce-9" value="+ field: type" style="text;strokeColor=none;fillColor=none;align=left;verticalAlign=top;spacingLeft=4;spacingRight=4;overflow=hidden;rotatable=0;points=[[0,0.5],[1,0.5]];portConstraint=eastwest;whiteSpace=wrap;html=1;" parent="NKLDn5L9JN7en2WeP7ce-8" vertex="1">
          <mxGeometry y="26" width="160" height="26" as="geometry" />
        </mxCell>
        <mxCell id="NKLDn5L9JN7en2WeP7ce-10" value="" style="line;strokeWidth=1;fillColor=none;align=left;verticalAlign=middle;spacingTop=-1;spacingLeft=3;spacingRight=3;rotatable=0;labelPosition=right;points=[];portConstraint=eastwest;strokeColor=inherit;" parent="NKLDn5L9JN7en2WeP7ce-8" vertex="1">
          <mxGeometry y="52" width="160" height="8" as="geometry" />
        </mxCell>
        <mxCell id="NKLDn5L9JN7en2WeP7ce-11" value="+ method(type): type" style="text;strokeColor=none;fillColor=none;align=left;verticalAlign=top;spacingLeft=4;spacingRight=4;overflow=hidden;rotatable=0;points=[[0,0.5],[1,0.5]];portConstraint=eastwest;whiteSpace=wrap;html=1;" parent="NKLDn5L9JN7en2WeP7ce-8" vertex="1">
          <mxGeometry y="60" width="160" height="26" as="geometry" />
        </mxCell>
        <mxCell id="NKLDn5L9JN7en2WeP7ce-12" value="" style="endArrow=block;dashed=1;endFill=0;endSize=12;html=1;rounded=0;exitX=0.5;exitY=0;exitDx=0;exitDy=0;entryX=0.25;entryY=1;entryDx=0;entryDy=0;" parent="1" source="NKLDn5L9JN7en2WeP7ce-8" target="NKLDn5L9JN7en2WeP7ce-4" edge="1">
          <mxGeometry width="160" relative="1" as="geometry">
            <mxPoint x="555" y="470" as="sourcePoint" />
            <mxPoint x="715" y="470" as="targetPoint" />
          </mxGeometry>
        </mxCell>
        <mxCell id="NKLDn5L9JN7en2WeP7ce-13" value="LinkedList" style="swimlane;fontStyle=1;align=center;verticalAlign=top;childLayout=stackLayout;horizontal=1;startSize=26;horizontalStack=0;resizeParent=1;resizeParentMax=0;resizeLast=0;collapsible=1;marginBottom=0;whiteSpace=wrap;html=1;" parent="1" vertex="1" collapsed="1">
          <mxGeometry x="320" y="630" width="100" height="30" as="geometry">
            <mxRectangle x="615" y="750" width="160" height="86" as="alternateBounds" />
          </mxGeometry>
        </mxCell>
        <mxCell id="NKLDn5L9JN7en2WeP7ce-14" value="+ field: type" style="text;strokeColor=none;fillColor=none;align=left;verticalAlign=top;spacingLeft=4;spacingRight=4;overflow=hidden;rotatable=0;points=[[0,0.5],[1,0.5]];portConstraint=eastwest;whiteSpace=wrap;html=1;" parent="NKLDn5L9JN7en2WeP7ce-13" vertex="1">
          <mxGeometry y="26" width="160" height="26" as="geometry" />
        </mxCell>
        <mxCell id="NKLDn5L9JN7en2WeP7ce-15" value="" style="line;strokeWidth=1;fillColor=none;align=left;verticalAlign=middle;spacingTop=-1;spacingLeft=3;spacingRight=3;rotatable=0;labelPosition=right;points=[];portConstraint=eastwest;strokeColor=inherit;" parent="NKLDn5L9JN7en2WeP7ce-13" vertex="1">
          <mxGeometry y="52" width="160" height="8" as="geometry" />
        </mxCell>
        <mxCell id="NKLDn5L9JN7en2WeP7ce-16" value="+ method(type): type" style="text;strokeColor=none;fillColor=none;align=left;verticalAlign=top;spacingLeft=4;spacingRight=4;overflow=hidden;rotatable=0;points=[[0,0.5],[1,0.5]];portConstraint=eastwest;whiteSpace=wrap;html=1;" parent="NKLDn5L9JN7en2WeP7ce-13" vertex="1">
          <mxGeometry y="60" width="160" height="26" as="geometry" />
        </mxCell>
        <mxCell id="NKLDn5L9JN7en2WeP7ce-17" value="" style="endArrow=block;dashed=1;endFill=0;endSize=12;html=1;rounded=0;exitX=0.5;exitY=0;exitDx=0;exitDy=0;entryX=0.5;entryY=1;entryDx=0;entryDy=0;" parent="1" source="NKLDn5L9JN7en2WeP7ce-13" target="NKLDn5L9JN7en2WeP7ce-4" edge="1">
          <mxGeometry width="160" relative="1" as="geometry">
            <mxPoint x="575" y="570" as="sourcePoint" />
            <mxPoint x="395" y="570" as="targetPoint" />
          </mxGeometry>
        </mxCell>
        <mxCell id="NKLDn5L9JN7en2WeP7ce-18" value="HashSet" style="swimlane;fontStyle=1;align=center;verticalAlign=top;childLayout=stackLayout;horizontal=1;startSize=26;horizontalStack=0;resizeParent=1;resizeParentMax=0;resizeLast=0;collapsible=1;marginBottom=0;whiteSpace=wrap;html=1;" parent="1" vertex="1" collapsed="1">
          <mxGeometry x="572.5" y="746" width="90" height="30" as="geometry">
            <mxRectangle x="1030" y="750" width="160" height="86" as="alternateBounds" />
          </mxGeometry>
        </mxCell>
        <mxCell id="NKLDn5L9JN7en2WeP7ce-19" value="+ field: type" style="text;strokeColor=none;fillColor=none;align=left;verticalAlign=top;spacingLeft=4;spacingRight=4;overflow=hidden;rotatable=0;points=[[0,0.5],[1,0.5]];portConstraint=eastwest;whiteSpace=wrap;html=1;" parent="NKLDn5L9JN7en2WeP7ce-18" vertex="1">
          <mxGeometry y="26" width="160" height="26" as="geometry" />
        </mxCell>
        <mxCell id="NKLDn5L9JN7en2WeP7ce-20" value="" style="line;strokeWidth=1;fillColor=none;align=left;verticalAlign=middle;spacingTop=-1;spacingLeft=3;spacingRight=3;rotatable=0;labelPosition=right;points=[];portConstraint=eastwest;strokeColor=inherit;" parent="NKLDn5L9JN7en2WeP7ce-18" vertex="1">
          <mxGeometry y="52" width="160" height="8" as="geometry" />
        </mxCell>
        <mxCell id="NKLDn5L9JN7en2WeP7ce-21" value="+ method(type): type" style="text;strokeColor=none;fillColor=none;align=left;verticalAlign=top;spacingLeft=4;spacingRight=4;overflow=hidden;rotatable=0;points=[[0,0.5],[1,0.5]];portConstraint=eastwest;whiteSpace=wrap;html=1;" parent="NKLDn5L9JN7en2WeP7ce-18" vertex="1">
          <mxGeometry y="60" width="160" height="26" as="geometry" />
        </mxCell>
        <mxCell id="NKLDn5L9JN7en2WeP7ce-22" value="" style="endArrow=block;dashed=1;endFill=0;endSize=12;html=1;exitX=0.5;exitY=0;exitDx=0;exitDy=0;entryX=0.25;entryY=1;entryDx=0;entryDy=0;rounded=0;" parent="1" source="NKLDn5L9JN7en2WeP7ce-18" target="NKLDn5L9JN7en2WeP7ce-6" edge="1">
          <mxGeometry width="160" relative="1" as="geometry">
            <mxPoint x="502.5" y="570" as="sourcePoint" />
            <mxPoint x="662.5" y="570" as="targetPoint" />
          </mxGeometry>
        </mxCell>
        <mxCell id="NKLDn5L9JN7en2WeP7ce-23" value="TreeSet" style="swimlane;fontStyle=1;align=center;verticalAlign=top;childLayout=stackLayout;horizontal=1;startSize=26;horizontalStack=0;resizeParent=1;resizeParentMax=0;resizeLast=0;collapsible=1;marginBottom=0;whiteSpace=wrap;html=1;" parent="1" vertex="1" collapsed="1">
          <mxGeometry x="727.5" y="746" width="80" height="30" as="geometry">
            <mxRectangle x="1205" y="860" width="160" height="86" as="alternateBounds" />
          </mxGeometry>
        </mxCell>
        <mxCell id="NKLDn5L9JN7en2WeP7ce-24" value="+ field: type" style="text;strokeColor=none;fillColor=none;align=left;verticalAlign=top;spacingLeft=4;spacingRight=4;overflow=hidden;rotatable=0;points=[[0,0.5],[1,0.5]];portConstraint=eastwest;whiteSpace=wrap;html=1;" parent="NKLDn5L9JN7en2WeP7ce-23" vertex="1">
          <mxGeometry y="26" width="160" height="26" as="geometry" />
        </mxCell>
        <mxCell id="NKLDn5L9JN7en2WeP7ce-25" value="" style="line;strokeWidth=1;fillColor=none;align=left;verticalAlign=middle;spacingTop=-1;spacingLeft=3;spacingRight=3;rotatable=0;labelPosition=right;points=[];portConstraint=eastwest;strokeColor=inherit;" parent="NKLDn5L9JN7en2WeP7ce-23" vertex="1">
          <mxGeometry y="52" width="160" height="8" as="geometry" />
        </mxCell>
        <mxCell id="NKLDn5L9JN7en2WeP7ce-26" value="+ method(type): type" style="text;strokeColor=none;fillColor=none;align=left;verticalAlign=top;spacingLeft=4;spacingRight=4;overflow=hidden;rotatable=0;points=[[0,0.5],[1,0.5]];portConstraint=eastwest;whiteSpace=wrap;html=1;" parent="NKLDn5L9JN7en2WeP7ce-23" vertex="1">
          <mxGeometry y="60" width="160" height="26" as="geometry" />
        </mxCell>
        <mxCell id="NKLDn5L9JN7en2WeP7ce-27" value="" style="endArrow=block;dashed=1;endFill=0;endSize=12;html=1;rounded=0;exitX=0.5;exitY=0;exitDx=0;exitDy=0;entryX=0.5;entryY=1;entryDx=0;entryDy=0;" parent="1" source="NKLDn5L9JN7en2WeP7ce-23" target="NKLDn5L9JN7en2WeP7ce-28" edge="1">
          <mxGeometry width="160" relative="1" as="geometry">
            <mxPoint x="532.5" y="736" as="sourcePoint" />
            <mxPoint x="842.5" y="766" as="targetPoint" />
          </mxGeometry>
        </mxCell>
        <mxCell id="NKLDn5L9JN7en2WeP7ce-28" value="&amp;lt;&amp;lt;interface&amp;gt;&amp;gt;&lt;br&gt;&lt;b&gt;SortedSet&lt;/b&gt;" style="html=1;whiteSpace=wrap;" parent="1" vertex="1">
          <mxGeometry x="712.5" y="636" width="110" height="50" as="geometry" />
        </mxCell>
        <mxCell id="NKLDn5L9JN7en2WeP7ce-29" value="" style="endArrow=block;dashed=1;endFill=0;endSize=12;html=1;rounded=0;entryX=0.75;entryY=1;entryDx=0;entryDy=0;exitX=0.5;exitY=0;exitDx=0;exitDy=0;" parent="1" source="NKLDn5L9JN7en2WeP7ce-28" target="NKLDn5L9JN7en2WeP7ce-6" edge="1">
          <mxGeometry width="160" relative="1" as="geometry">
            <mxPoint x="472.5" y="590" as="sourcePoint" />
            <mxPoint x="632.5" y="590" as="targetPoint" />
          </mxGeometry>
        </mxCell>
        <mxCell id="NKLDn5L9JN7en2WeP7ce-30" value="&amp;lt;&amp;lt;interface&amp;gt;&amp;gt;&lt;br&gt;&lt;b&gt;Map&amp;lt;K,V&amp;gt;&lt;/b&gt;" style="html=1;whiteSpace=wrap;" parent="1" vertex="1">
          <mxGeometry x="1350" y="280" width="110" height="50" as="geometry" />
        </mxCell>
        <mxCell id="NKLDn5L9JN7en2WeP7ce-31" value="HashMap" style="swimlane;fontStyle=1;align=center;verticalAlign=top;childLayout=stackLayout;horizontal=1;startSize=26;horizontalStack=0;resizeParent=1;resizeParentMax=0;resizeLast=0;collapsible=1;marginBottom=0;whiteSpace=wrap;html=1;" parent="1" vertex="1" collapsed="1">
          <mxGeometry x="1190" y="400" width="90" height="30" as="geometry">
            <mxRectangle x="1550" y="520" width="160" height="86" as="alternateBounds" />
          </mxGeometry>
        </mxCell>
        <mxCell id="NKLDn5L9JN7en2WeP7ce-32" value="+ field: type" style="text;strokeColor=none;fillColor=none;align=left;verticalAlign=top;spacingLeft=4;spacingRight=4;overflow=hidden;rotatable=0;points=[[0,0.5],[1,0.5]];portConstraint=eastwest;whiteSpace=wrap;html=1;" parent="NKLDn5L9JN7en2WeP7ce-31" vertex="1">
          <mxGeometry y="26" width="160" height="26" as="geometry" />
        </mxCell>
        <mxCell id="NKLDn5L9JN7en2WeP7ce-33" value="" style="line;strokeWidth=1;fillColor=none;align=left;verticalAlign=middle;spacingTop=-1;spacingLeft=3;spacingRight=3;rotatable=0;labelPosition=right;points=[];portConstraint=eastwest;strokeColor=inherit;" parent="NKLDn5L9JN7en2WeP7ce-31" vertex="1">
          <mxGeometry y="52" width="160" height="8" as="geometry" />
        </mxCell>
        <mxCell id="NKLDn5L9JN7en2WeP7ce-34" value="+ method(type): type" style="text;strokeColor=none;fillColor=none;align=left;verticalAlign=top;spacingLeft=4;spacingRight=4;overflow=hidden;rotatable=0;points=[[0,0.5],[1,0.5]];portConstraint=eastwest;whiteSpace=wrap;html=1;" parent="NKLDn5L9JN7en2WeP7ce-31" vertex="1">
          <mxGeometry y="60" width="160" height="26" as="geometry" />
        </mxCell>
        <mxCell id="NKLDn5L9JN7en2WeP7ce-35" value="" style="endArrow=block;dashed=1;endFill=0;endSize=12;html=1;rounded=0;exitX=0.5;exitY=0;exitDx=0;exitDy=0;entryX=0.25;entryY=1;entryDx=0;entryDy=0;" parent="1" source="NKLDn5L9JN7en2WeP7ce-31" target="NKLDn5L9JN7en2WeP7ce-30" edge="1">
          <mxGeometry width="160" relative="1" as="geometry">
            <mxPoint x="1340" y="420" as="sourcePoint" />
            <mxPoint x="1395" y="330" as="targetPoint" />
          </mxGeometry>
        </mxCell>
        <mxCell id="NKLDn5L9JN7en2WeP7ce-36" value="TreeMap" style="swimlane;fontStyle=1;align=center;verticalAlign=top;childLayout=stackLayout;horizontal=1;startSize=26;horizontalStack=0;resizeParent=1;resizeParentMax=0;resizeLast=0;collapsible=1;marginBottom=0;whiteSpace=wrap;html=1;" parent="1" vertex="1" collapsed="1">
          <mxGeometry x="1540" y="510" width="90" height="30" as="geometry">
            <mxRectangle x="2095" y="670" width="160" height="86" as="alternateBounds" />
          </mxGeometry>
        </mxCell>
        <mxCell id="NKLDn5L9JN7en2WeP7ce-37" value="+ field: type" style="text;strokeColor=none;fillColor=none;align=left;verticalAlign=top;spacingLeft=4;spacingRight=4;overflow=hidden;rotatable=0;points=[[0,0.5],[1,0.5]];portConstraint=eastwest;whiteSpace=wrap;html=1;" parent="NKLDn5L9JN7en2WeP7ce-36" vertex="1">
          <mxGeometry y="26" width="160" height="26" as="geometry" />
        </mxCell>
        <mxCell id="NKLDn5L9JN7en2WeP7ce-38" value="" style="line;strokeWidth=1;fillColor=none;align=left;verticalAlign=middle;spacingTop=-1;spacingLeft=3;spacingRight=3;rotatable=0;labelPosition=right;points=[];portConstraint=eastwest;strokeColor=inherit;" parent="NKLDn5L9JN7en2WeP7ce-36" vertex="1">
          <mxGeometry y="52" width="160" height="8" as="geometry" />
        </mxCell>
        <mxCell id="NKLDn5L9JN7en2WeP7ce-39" value="+ method(type): type" style="text;strokeColor=none;fillColor=none;align=left;verticalAlign=top;spacingLeft=4;spacingRight=4;overflow=hidden;rotatable=0;points=[[0,0.5],[1,0.5]];portConstraint=eastwest;whiteSpace=wrap;html=1;" parent="NKLDn5L9JN7en2WeP7ce-36" vertex="1">
          <mxGeometry y="60" width="160" height="26" as="geometry" />
        </mxCell>
        <mxCell id="NKLDn5L9JN7en2WeP7ce-40" value="" style="endArrow=block;dashed=1;endFill=0;endSize=12;html=1;rounded=0;entryX=0.5;entryY=1;entryDx=0;entryDy=0;exitX=0.5;exitY=0;exitDx=0;exitDy=0;" parent="1" source="NKLDn5L9JN7en2WeP7ce-36" target="NKLDn5L9JN7en2WeP7ce-56" edge="1">
          <mxGeometry width="160" relative="1" as="geometry">
            <mxPoint x="1340" y="470" as="sourcePoint" />
            <mxPoint x="1500" y="470" as="targetPoint" />
          </mxGeometry>
        </mxCell>
        <mxCell id="NKLDn5L9JN7en2WeP7ce-41" value="Vector" style="swimlane;fontStyle=1;align=center;verticalAlign=top;childLayout=stackLayout;horizontal=1;startSize=26;horizontalStack=0;resizeParent=1;resizeParentMax=0;resizeLast=0;collapsible=1;marginBottom=0;whiteSpace=wrap;html=1;fillColor=#f5f5f5;fontColor=#333333;strokeColor=#666666;" parent="1" vertex="1" collapsed="1">
          <mxGeometry x="455" y="630" width="80" height="30" as="geometry">
            <mxRectangle x="790" y="750" width="160" height="86" as="alternateBounds" />
          </mxGeometry>
        </mxCell>
        <mxCell id="NKLDn5L9JN7en2WeP7ce-42" value="+ field: type" style="text;strokeColor=#666666;fillColor=#f5f5f5;align=left;verticalAlign=top;spacingLeft=4;spacingRight=4;overflow=hidden;rotatable=0;points=[[0,0.5],[1,0.5]];portConstraint=eastwest;whiteSpace=wrap;html=1;fontColor=#333333;" parent="NKLDn5L9JN7en2WeP7ce-41" vertex="1">
          <mxGeometry y="26" width="160" height="26" as="geometry" />
        </mxCell>
        <mxCell id="NKLDn5L9JN7en2WeP7ce-43" value="" style="line;strokeWidth=1;fillColor=#f5f5f5;align=left;verticalAlign=middle;spacingTop=-1;spacingLeft=3;spacingRight=3;rotatable=0;labelPosition=right;points=[];portConstraint=eastwest;strokeColor=#666666;fontColor=#333333;" parent="NKLDn5L9JN7en2WeP7ce-41" vertex="1">
          <mxGeometry y="52" width="160" height="8" as="geometry" />
        </mxCell>
        <mxCell id="NKLDn5L9JN7en2WeP7ce-44" value="+ method(type): type" style="text;strokeColor=#666666;fillColor=#f5f5f5;align=left;verticalAlign=top;spacingLeft=4;spacingRight=4;overflow=hidden;rotatable=0;points=[[0,0.5],[1,0.5]];portConstraint=eastwest;whiteSpace=wrap;html=1;fontColor=#333333;" parent="NKLDn5L9JN7en2WeP7ce-41" vertex="1">
          <mxGeometry y="60" width="160" height="26" as="geometry" />
        </mxCell>
        <mxCell id="NKLDn5L9JN7en2WeP7ce-45" value="" style="endArrow=block;dashed=1;endFill=0;endSize=12;html=1;rounded=0;entryX=0.75;entryY=1;entryDx=0;entryDy=0;exitX=0.5;exitY=0;exitDx=0;exitDy=0;" parent="1" source="NKLDn5L9JN7en2WeP7ce-41" target="NKLDn5L9JN7en2WeP7ce-4" edge="1">
          <mxGeometry width="160" relative="1" as="geometry">
            <mxPoint x="535" y="720" as="sourcePoint" />
            <mxPoint x="695" y="720" as="targetPoint" />
          </mxGeometry>
        </mxCell>
        <mxCell id="NKLDn5L9JN7en2WeP7ce-46" value="Hashtable" style="swimlane;fontStyle=1;align=center;verticalAlign=top;childLayout=stackLayout;horizontal=1;startSize=26;horizontalStack=0;resizeParent=1;resizeParentMax=0;resizeLast=0;collapsible=1;marginBottom=0;whiteSpace=wrap;html=1;fillColor=#f5f5f5;strokeColor=#666666;fontColor=#333333;" parent="1" vertex="1" collapsed="1">
          <mxGeometry x="1355" y="400" width="100" height="30" as="geometry">
            <mxRectangle x="1845" y="520" width="160" height="86" as="alternateBounds" />
          </mxGeometry>
        </mxCell>
        <mxCell id="NKLDn5L9JN7en2WeP7ce-47" value="+ field: type" style="text;strokeColor=#666666;fillColor=#f5f5f5;align=left;verticalAlign=top;spacingLeft=4;spacingRight=4;overflow=hidden;rotatable=0;points=[[0,0.5],[1,0.5]];portConstraint=eastwest;whiteSpace=wrap;html=1;fontColor=#333333;" parent="NKLDn5L9JN7en2WeP7ce-46" vertex="1">
          <mxGeometry y="26" width="160" height="26" as="geometry" />
        </mxCell>
        <mxCell id="NKLDn5L9JN7en2WeP7ce-48" value="" style="line;strokeWidth=1;fillColor=#f5f5f5;align=left;verticalAlign=middle;spacingTop=-1;spacingLeft=3;spacingRight=3;rotatable=0;labelPosition=right;points=[];portConstraint=eastwest;strokeColor=#666666;fontColor=#333333;" parent="NKLDn5L9JN7en2WeP7ce-46" vertex="1">
          <mxGeometry y="52" width="160" height="8" as="geometry" />
        </mxCell>
        <mxCell id="NKLDn5L9JN7en2WeP7ce-49" value="+ method(type): type" style="text;strokeColor=#666666;fillColor=#f5f5f5;align=left;verticalAlign=top;spacingLeft=4;spacingRight=4;overflow=hidden;rotatable=0;points=[[0,0.5],[1,0.5]];portConstraint=eastwest;whiteSpace=wrap;html=1;fontColor=#333333;" parent="NKLDn5L9JN7en2WeP7ce-46" vertex="1">
          <mxGeometry y="60" width="160" height="26" as="geometry" />
        </mxCell>
        <mxCell id="NKLDn5L9JN7en2WeP7ce-50" value="" style="endArrow=block;dashed=1;endFill=0;endSize=12;html=1;rounded=0;entryX=0.5;entryY=1;entryDx=0;entryDy=0;exitX=0.5;exitY=0;exitDx=0;exitDy=0;" parent="1" source="NKLDn5L9JN7en2WeP7ce-46" target="NKLDn5L9JN7en2WeP7ce-30" edge="1">
          <mxGeometry width="160" relative="1" as="geometry">
            <mxPoint x="1290" y="430" as="sourcePoint" />
            <mxPoint x="1450" y="430" as="targetPoint" />
          </mxGeometry>
        </mxCell>
        <mxCell id="NKLDn5L9JN7en2WeP7ce-51" value="Properties" style="swimlane;fontStyle=1;align=center;verticalAlign=top;childLayout=stackLayout;horizontal=1;startSize=26;horizontalStack=0;resizeParent=1;resizeParentMax=0;resizeLast=0;collapsible=1;marginBottom=0;whiteSpace=wrap;html=1;" parent="1" vertex="1" collapsed="1">
          <mxGeometry x="1355" y="600" width="100" height="30" as="geometry">
            <mxRectangle x="1845" y="670" width="160" height="86" as="alternateBounds" />
          </mxGeometry>
        </mxCell>
        <mxCell id="NKLDn5L9JN7en2WeP7ce-52" value="+ field: type" style="text;strokeColor=none;fillColor=none;align=left;verticalAlign=top;spacingLeft=4;spacingRight=4;overflow=hidden;rotatable=0;points=[[0,0.5],[1,0.5]];portConstraint=eastwest;whiteSpace=wrap;html=1;" parent="NKLDn5L9JN7en2WeP7ce-51" vertex="1">
          <mxGeometry y="26" width="160" height="26" as="geometry" />
        </mxCell>
        <mxCell id="NKLDn5L9JN7en2WeP7ce-53" value="" style="line;strokeWidth=1;fillColor=none;align=left;verticalAlign=middle;spacingTop=-1;spacingLeft=3;spacingRight=3;rotatable=0;labelPosition=right;points=[];portConstraint=eastwest;strokeColor=inherit;" parent="NKLDn5L9JN7en2WeP7ce-51" vertex="1">
          <mxGeometry y="52" width="160" height="8" as="geometry" />
        </mxCell>
        <mxCell id="NKLDn5L9JN7en2WeP7ce-54" value="+ method(type): type" style="text;strokeColor=none;fillColor=none;align=left;verticalAlign=top;spacingLeft=4;spacingRight=4;overflow=hidden;rotatable=0;points=[[0,0.5],[1,0.5]];portConstraint=eastwest;whiteSpace=wrap;html=1;" parent="NKLDn5L9JN7en2WeP7ce-51" vertex="1">
          <mxGeometry y="60" width="160" height="26" as="geometry" />
        </mxCell>
        <mxCell id="NKLDn5L9JN7en2WeP7ce-55" value="Extends" style="endArrow=block;endSize=16;endFill=0;html=1;rounded=0;exitX=0.5;exitY=0;exitDx=0;exitDy=0;entryX=0.5;entryY=1;entryDx=0;entryDy=0;" parent="1" source="NKLDn5L9JN7en2WeP7ce-51" target="NKLDn5L9JN7en2WeP7ce-46" edge="1">
          <mxGeometry width="160" relative="1" as="geometry">
            <mxPoint x="1560" y="430" as="sourcePoint" />
            <mxPoint x="1400" y="500" as="targetPoint" />
          </mxGeometry>
        </mxCell>
        <mxCell id="NKLDn5L9JN7en2WeP7ce-56" value="&amp;lt;&amp;lt;interface&amp;gt;&amp;gt;&lt;br&gt;&lt;b&gt;SortedMap&lt;/b&gt;" style="html=1;whiteSpace=wrap;" parent="1" vertex="1">
          <mxGeometry x="1530" y="400" width="110" height="50" as="geometry" />
        </mxCell>
        <mxCell id="NKLDn5L9JN7en2WeP7ce-57" value="" style="endArrow=block;dashed=1;endFill=0;endSize=12;html=1;rounded=0;entryX=0.75;entryY=1;entryDx=0;entryDy=0;exitX=0.5;exitY=0;exitDx=0;exitDy=0;" parent="1" source="NKLDn5L9JN7en2WeP7ce-56" target="NKLDn5L9JN7en2WeP7ce-30" edge="1">
          <mxGeometry width="160" relative="1" as="geometry">
            <mxPoint x="1360" y="460" as="sourcePoint" />
            <mxPoint x="1520" y="460" as="targetPoint" />
          </mxGeometry>
        </mxCell>
        <mxCell id="NKLDn5L9JN7en2WeP7ce-58" value="&lt;span style=&quot;background-color: initial;&quot;&gt;底层数据结构采用数组&amp;nbsp;&amp;nbsp;&lt;/span&gt;&lt;span style=&quot;background-color: initial;&quot;&gt;非线程安全&lt;br&gt;&lt;br&gt;&lt;br&gt;&lt;br&gt;&lt;/span&gt;" style="text;html=1;strokeColor=none;fillColor=none;align=left;verticalAlign=middle;whiteSpace=wrap;rounded=0;" parent="1" vertex="1">
          <mxGeometry x="195" y="665" width="100" height="75" as="geometry" />
        </mxCell>
        <mxCell id="NKLDn5L9JN7en2WeP7ce-59" value="底层数据结构采用双向链表" style="text;html=1;strokeColor=none;fillColor=none;align=center;verticalAlign=middle;whiteSpace=wrap;rounded=0;" parent="1" vertex="1">
          <mxGeometry x="327.5" y="665" width="85" height="30" as="geometry" />
        </mxCell>
        <mxCell id="NKLDn5L9JN7en2WeP7ce-60" value="&lt;div style=&quot;text-align: left;&quot;&gt;&lt;span style=&quot;background-color: initial;&quot;&gt;底层数据结构采用数组&amp;nbsp; 线程安全&lt;/span&gt;&lt;/div&gt;&lt;div style=&quot;text-align: left;&quot;&gt;&lt;span style=&quot;background-color: initial;&quot;&gt;有其他方法保证&lt;/span&gt;&lt;/div&gt;&lt;div style=&quot;text-align: left;&quot;&gt;&lt;span style=&quot;background-color: initial;&quot;&gt;线程安全 不常用&lt;/span&gt;&lt;/div&gt;" style="text;html=1;strokeColor=none;fillColor=none;align=center;verticalAlign=middle;whiteSpace=wrap;rounded=0;" parent="1" vertex="1">
          <mxGeometry x="445" y="665" width="100" height="54" as="geometry" />
        </mxCell>
        <mxCell id="NKLDn5L9JN7en2WeP7ce-61" value="存储元素有序(有下标)可重复&amp;nbsp;" style="text;html=1;strokeColor=none;fillColor=none;align=left;verticalAlign=middle;whiteSpace=wrap;rounded=0;" parent="1" vertex="1">
          <mxGeometry x="190" y="520" width="125" height="50" as="geometry" />
        </mxCell>
        <mxCell id="NKLDn5L9JN7en2WeP7ce-62" value="存储元素无序不可重复" style="text;html=1;strokeColor=none;fillColor=none;align=center;verticalAlign=middle;whiteSpace=wrap;rounded=0;" parent="1" vertex="1">
          <mxGeometry x="742.5" y="530" width="80" height="30" as="geometry" />
        </mxCell>
        <mxCell id="NKLDn5L9JN7en2WeP7ce-63" value="HashSet 实例化时底层创建 HashMap 对象&lt;br&gt;（哈希表数据结构）" style="text;html=1;strokeColor=none;fillColor=none;align=center;verticalAlign=middle;whiteSpace=wrap;rounded=0;" parent="1" vertex="1">
          <mxGeometry x="555" y="776" width="125" height="54" as="geometry" />
        </mxCell>
        <mxCell id="NKLDn5L9JN7en2WeP7ce-64" value="TreeSet 实例化时底层创建 TreeMap 对象&lt;br&gt;（二叉树数据结构）" style="text;html=1;strokeColor=none;fillColor=none;align=center;verticalAlign=middle;whiteSpace=wrap;rounded=0;" parent="1" vertex="1">
          <mxGeometry x="702.5" y="772" width="130" height="62" as="geometry" />
        </mxCell>
        <mxCell id="NKLDn5L9JN7en2WeP7ce-65" value="&lt;font style=&quot;font-size: 25px;&quot;&gt;Java 集合框架&lt;/font&gt;" style="text;html=1;strokeColor=none;fillColor=none;align=center;verticalAlign=middle;whiteSpace=wrap;rounded=0;" parent="1" vertex="1">
          <mxGeometry x="832.5" y="150" width="200" height="30" as="geometry" />
        </mxCell>
        <mxCell id="NKLDn5L9JN7en2WeP7ce-66" value="存储的元素会自动排序&lt;br&gt;是可排序集合" style="text;html=1;strokeColor=none;fillColor=none;align=center;verticalAlign=middle;whiteSpace=wrap;rounded=0;" parent="1" vertex="1">
          <mxGeometry x="832.5" y="639" width="122.5" height="44" as="geometry" />
        </mxCell>
        <mxCell id="NKLDn5L9JN7en2WeP7ce-67" value="与 Collection 没有关系&lt;br&gt;以键值对形式存储元素&lt;br&gt;Key 无序不可重复" style="text;html=1;strokeColor=none;fillColor=none;align=center;verticalAlign=middle;whiteSpace=wrap;rounded=0;" parent="1" vertex="1">
          <mxGeometry x="1460" y="285" width="150" height="40" as="geometry" />
        </mxCell>
        <mxCell id="NKLDn5L9JN7en2WeP7ce-68" value="底层数据结构是哈希表&lt;br&gt;非线程安全" style="text;html=1;strokeColor=none;fillColor=none;align=center;verticalAlign=middle;whiteSpace=wrap;rounded=0;" parent="1" vertex="1">
          <mxGeometry x="1170" y="440" width="130" height="30" as="geometry" />
        </mxCell>
        <mxCell id="NKLDn5L9JN7en2WeP7ce-69" value="底层数据结构是哈希表&lt;br&gt;是线程安全的&lt;br&gt;有其他方法实现线程安全 少用" style="text;html=1;strokeColor=none;fillColor=none;align=center;verticalAlign=middle;whiteSpace=wrap;rounded=0;" parent="1" vertex="1">
          <mxGeometry x="1330" y="460" width="170" height="30" as="geometry" />
        </mxCell>
        <mxCell id="NKLDn5L9JN7en2WeP7ce-70" value="Key 会自动排序&lt;br&gt;是可排序的集合" style="text;html=1;strokeColor=none;fillColor=none;align=center;verticalAlign=middle;whiteSpace=wrap;rounded=0;" parent="1" vertex="1">
          <mxGeometry x="1640" y="410" width="100" height="30" as="geometry" />
        </mxCell>
        <mxCell id="NKLDn5L9JN7en2WeP7ce-71" value="底层数据结构是二叉树" style="text;html=1;strokeColor=none;fillColor=none;align=center;verticalAlign=middle;whiteSpace=wrap;rounded=0;" parent="1" vertex="1">
          <mxGeometry x="1542.5" y="550" width="85" height="30" as="geometry" />
        </mxCell>
        <mxCell id="NKLDn5L9JN7en2WeP7ce-72" value="线程安全&lt;br&gt;以键值对的形式存储元素&lt;br&gt;key 和 value 必须是 String 类型" style="text;html=1;strokeColor=none;fillColor=none;align=center;verticalAlign=middle;whiteSpace=wrap;rounded=0;" parent="1" vertex="1">
          <mxGeometry x="1316.25" y="622" width="177.5" height="64" as="geometry" />
        </mxCell>
        <mxCell id="E5FZJGZwCVPtuIH_qCDA-18" value="&amp;lt;&amp;lt;interface&amp;gt;&amp;gt;&lt;br style=&quot;border-color: var(--border-color);&quot;&gt;&lt;b style=&quot;border-color: var(--border-color);&quot;&gt;Iterable&lt;/b&gt;" style="swimlane;fontStyle=0;align=center;verticalAlign=top;childLayout=stackLayout;horizontal=1;startSize=40;horizontalStack=0;resizeParent=1;resizeParentMax=0;resizeLast=0;collapsible=0;marginBottom=0;html=1;whiteSpace=wrap;" parent="1" vertex="1">
          <mxGeometry x="485" y="255" width="110" height="70" as="geometry" />
        </mxCell>
        <mxCell id="E5FZJGZwCVPtuIH_qCDA-19" value="iterator()" style="text;html=1;strokeColor=none;fillColor=none;align=left;verticalAlign=middle;spacingLeft=4;spacingRight=4;overflow=hidden;rotatable=0;points=[[0,0.5],[1,0.5]];portConstraint=eastwest;whiteSpace=wrap;" parent="E5FZJGZwCVPtuIH_qCDA-18" vertex="1">
          <mxGeometry y="40" width="110" height="30" as="geometry" />
        </mxCell>
        <mxCell id="E5FZJGZwCVPtuIH_qCDA-22" value="return" style="html=1;verticalAlign=bottom;endArrow=open;dashed=1;endSize=8;edgeStyle=elbowEdgeStyle;elbow=vertical;curved=0;rounded=0;entryX=1.006;entryY=0.191;entryDx=0;entryDy=0;entryPerimeter=0;" parent="1" source="E5FZJGZwCVPtuIH_qCDA-19" target="E5FZJGZwCVPtuIH_qCDA-25" edge="1">
          <mxGeometry relative="1" as="geometry">
            <mxPoint x="425" y="304.86" as="sourcePoint" />
            <mxPoint x="310" y="320" as="targetPoint" />
          </mxGeometry>
        </mxCell>
        <mxCell id="E5FZJGZwCVPtuIH_qCDA-24" value="&amp;lt;&amp;lt;Object&amp;gt;&amp;gt;&lt;br&gt;&lt;b&gt;Iterator&lt;/b&gt;" style="swimlane;fontStyle=0;align=center;verticalAlign=top;childLayout=stackLayout;horizontal=1;startSize=40;horizontalStack=0;resizeParent=1;resizeParentMax=0;resizeLast=0;collapsible=0;marginBottom=0;html=1;whiteSpace=wrap;" parent="1" vertex="1">
          <mxGeometry x="220" y="260" width="140" height="100" as="geometry" />
        </mxCell>
        <mxCell id="E5FZJGZwCVPtuIH_qCDA-25" value="+ hasNext() : boolean&lt;br&gt;+ next() : Object&lt;br&gt;+ remove()" style="text;html=1;strokeColor=none;fillColor=none;align=left;verticalAlign=middle;spacingLeft=4;spacingRight=4;overflow=hidden;rotatable=0;points=[[0,0.5],[1,0.5]];portConstraint=eastwest;whiteSpace=wrap;" parent="E5FZJGZwCVPtuIH_qCDA-24" vertex="1">
          <mxGeometry y="40" width="140" height="60" as="geometry" />
        </mxCell>
        <mxCell id="E5FZJGZwCVPtuIH_qCDA-29" style="edgeStyle=orthogonalEdgeStyle;orthogonalLoop=1;jettySize=auto;html=1;exitX=0.5;exitY=0;exitDx=0;exitDy=0;entryX=0;entryY=0.25;entryDx=0;entryDy=0;fontColor=#29b6f2;curved=1;fillColor=#dae8fc;strokeColor=#6c8ebf;" parent="1" source="E5FZJGZwCVPtuIH_qCDA-26" target="NKLDn5L9JN7en2WeP7ce-58" edge="1">
          <mxGeometry relative="1" as="geometry" />
        </mxCell>
        <mxCell id="E5FZJGZwCVPtuIH_qCDA-26" value="&lt;ol&gt;&lt;li&gt;初始化容量为 0，添加第一个元素时，初始化为容量为 10 的数组&lt;/li&gt;&lt;li&gt;也可以指定初始化容量&lt;/li&gt;&lt;li&gt;&lt;span style=&quot;&quot;&gt;底层是 Object 数组 Object[ ]&lt;/span&gt;&lt;/li&gt;&lt;li&gt;&lt;span style=&quot;&quot;&gt;扩容时，扩容到原容量的 1.5 倍&lt;/span&gt;&lt;/li&gt;&lt;/ol&gt;&lt;div&gt;&lt;br&gt;&lt;/div&gt;" style="text;html=1;align=left;verticalAlign=middle;whiteSpace=wrap;rounded=1;fontColor=#29b6f2;" parent="1" vertex="1">
          <mxGeometry x="50" y="730" width="170" height="140" as="geometry" />
        </mxCell>
        <mxCell id="E5FZJGZwCVPtuIH_qCDA-34" style="edgeStyle=orthogonalEdgeStyle;orthogonalLoop=1;jettySize=auto;html=1;entryX=0.5;entryY=1;entryDx=0;entryDy=0;curved=1;fillColor=#dae8fc;strokeColor=#6c8ebf;" parent="1" source="E5FZJGZwCVPtuIH_qCDA-33" target="NKLDn5L9JN7en2WeP7ce-60" edge="1">
          <mxGeometry relative="1" as="geometry" />
        </mxCell>
        <mxCell id="E5FZJGZwCVPtuIH_qCDA-33" value="初始容量为 10&amp;nbsp;&lt;br&gt;每次扩容后容量为原来的 2 倍" style="text;html=1;strokeColor=none;fillColor=none;align=center;verticalAlign=middle;whiteSpace=wrap;rounded=0;fontColor=#26b5f2;labelBackgroundColor=none;" parent="1" vertex="1">
          <mxGeometry x="370" y="810" width="107.5" height="50" as="geometry" />
        </mxCell>
        <mxCell id="U4vTfiN4fj5nzS34plb_-5" style="edgeStyle=orthogonalEdgeStyle;orthogonalLoop=1;jettySize=auto;html=1;fillColor=#dae8fc;strokeColor=#6c8ebf;curved=1;" edge="1" parent="1" source="U4vTfiN4fj5nzS34plb_-4" target="NKLDn5L9JN7en2WeP7ce-68">
          <mxGeometry relative="1" as="geometry" />
        </mxCell>
        <mxCell id="U4vTfiN4fj5nzS34plb_-4" value="&lt;ol&gt;&lt;li&gt;&lt;font&gt;哈希表底层数据结构是链表数组。&lt;/font&gt;&lt;/li&gt;&lt;li&gt;&lt;font&gt;初始化容量为 0，第一次存入元素后扩容为 16，默认加载因子为 0.75，即元素数量(链表)达到最大容量的 0.75 时开始扩容。&lt;/font&gt;&lt;/li&gt;&lt;li&gt;&lt;font&gt;HashMap 初始化容量必须是 2 的倍数，是为了达到散列分布均匀，提高效率。&lt;/font&gt;&lt;/li&gt;&lt;li&gt;每个链表上存储的元素超过 8 时，会将链表转为红黑树。当红黑树节点小于 6 时，会把红黑树转为链表(Java 8+)。&lt;/li&gt;&lt;/ol&gt;" style="text;html=1;strokeColor=none;fillColor=none;align=left;verticalAlign=middle;whiteSpace=wrap;rounded=0;fontColor=#29b6f2;" vertex="1" parent="1">
          <mxGeometry x="1000" y="550" width="230" height="180" as="geometry" />
        </mxCell>
      </root>
    </mxGraphModel>
  </diagram>
</mxfile>
